<svg height="464pt" viewBox="0 0 464 464" width="464pt" xmlns="http://www.w3.org/2000/svg"><path d="m464 232c0 128.128906-103.871094 232-232 232s-232-103.871094-232-232 103.871094-232 232-232 232 103.871094 232 232zm0 0" fill="#f6f6e7"/><path d="m384.726562 248.710938-.054687.050781c-7.191406 6.707031-9.285156 17.261719-5.191406 26.207031 2.636719 5.769531 2.757812 12.378906.332031 18.238281-2.429688 5.863281-7.1875 10.449219-13.132812 12.664063-9.226563 3.433594-15.214844 12.386718-14.863282 22.226562v.046875c.226563 6.335938-2.191406 12.480469-6.675781 16.964844s-10.628906 6.902344-16.964844 6.675781h-.046875c-9.835937-.351562-18.789062 5.636719-22.21875 14.863282-2.210937 5.949218-6.800781 10.707031-12.664062 13.132812-5.867188 2.429688-12.476563 2.308594-18.246094-.332031-8.945312-4.097657-19.503906-2-26.207031 5.199219l-.050781.046874c-4.320313 4.636719-10.371094 7.273438-16.710938 7.273438-6.335938 0-12.390625-2.636719-16.710938-7.273438l-.046874-.054687c-6.707032-7.191406-17.265626-9.285156-26.210938-5.191406-5.769531 2.636719-12.375 2.757812-18.238281.328125-5.863281-2.425782-10.449219-7.183594-12.664063-13.128906-3.429687-9.226563-12.386718-15.214844-22.222656-14.863282h-.050781c-6.335938.226563-12.480469-2.191406-16.964844-6.675781-4.480469-4.484375-6.898437-10.628906-6.675781-16.964844v-.046875c.351562-9.835937-5.636719-18.789062-14.863282-22.21875-5.945312-2.214844-10.707031-6.800781-13.132812-12.667968-2.429688-5.863282-2.308594-12.472657.335938-18.242188 4.09375-8.945312 1.996093-19.507812-5.203126-26.207031l-.046874-.050781c-4.636719-4.320313-7.273438-10.371094-7.273438-16.710938s2.636719-12.390625 7.273438-16.710938l.054687-.050781c7.195313-6.707031 9.285156-17.261719 5.195313-26.207031-2.640626-5.769531-2.761719-12.378906-.332032-18.238281 2.425782-5.863281 7.183594-10.449219 13.128906-12.664063 9.226563-3.433594 15.21875-12.386718 14.863282-22.226562v-.046875c-.222656-6.335938 2.195312-12.480469 6.675781-16.964844 4.484375-4.484375 10.628906-6.902344 16.964844-6.675781h.050781c9.832031.351562 18.785156-5.636719 22.214844-14.863282 2.214844-5.949218 6.804687-10.707031 12.667968-13.132812 5.863282-2.429688 12.472657-2.308594 18.242188.332031 8.945312 4.097657 19.507812 2 26.210938-5.199219l.046874-.046874c4.320313-4.636719 10.375-7.273438 16.710938-7.273438 6.339844 0 12.390625 2.636719 16.710938 7.273438l.050781.054687c6.707031 7.191406 17.265625 9.285156 26.207031 5.191406 5.769531-2.636719 12.378906-2.757812 18.238281-.328125 5.863281 2.425782 10.453125 7.183594 12.664063 13.128906 3.433594 9.226563 12.386718 15.214844 22.226562 14.863282h.046875c6.335938-.226563 12.480469 2.191406 16.964844 6.675781s6.902344 10.628906 6.675781 16.964844v.046875c-.351562 9.835937 5.640625 18.789062 14.863282 22.21875 5.949218 2.214844 10.707031 6.800781 13.136718 12.667968 2.425782 5.863282 2.304688 12.472657-.335937 18.242188-4.097657 8.945312-2 19.507812 5.199219 26.207031l.046874.050781c4.640626 4.320313 7.273438 10.371094 7.273438 16.710938s-2.632812 12.390625-7.273438 16.710938zm0 0" fill="#f7ce49"/><g fill="#dd9e25"><path d="m368 232c0 75.109375-60.890625 136-136 136s-136-60.890625-136-136 60.890625-136 136-136 136 60.890625 136 136zm0 0"/><path d="m224 24h16v16h-16zm0 0"/><path d="m188.003906 28.546875 15.75-2.773437 2.773438 15.757812-15.75 2.773438zm0 0"/><path d="m153.339844 39.28125 15.035156-5.476562 5.476562 15.035156-15.035156 5.476562zm0 0"/><path d="m121.070312 55.863281 13.855469-8 8.003907 13.855469-13.859376 8zm0 0"/><path d="m92.171875 77.804688 12.25-10.289063 10.289063 12.253906-12.253907 10.289063zm0 0"/><path d="m67.53125 104.460938 10.285156-12.253907 12.257813 10.285157-10.289063 12.257812zm0 0"/><path d="m47.863281 134.933594 8-13.855469 13.855469 7.996094-7.996094 13.859375zm0 0"/><path d="m33.816406 168.371094 5.46875-15.023438 15.035156 5.472656-5.46875 15.027344zm0 0"/><path d="m25.765625 203.761719 2.777344-15.757813 15.757812 2.777344-2.777343 15.757812zm0 0"/><path d="m24 224h16v16h-16zm0 0"/><path d="m25.765625 260.242188 15.757813-2.78125 2.78125 15.757812-15.757813 2.78125zm0 0"/><path d="m33.808594 295.628906 15.035156-5.472656 5.46875 15.027344-15.035156 5.472656zm0 0"/><path d="m47.867188 329.074219 13.859374-8 8 13.859375-13.859374 7.996094zm0 0"/><path d="m67.519531 359.574219 12.257813-10.285157 10.28125 12.261719-12.257813 10.28125zm0 0"/><path d="m92.164062 386.191406 10.289063-12.253906 12.253906 10.292969-10.289062 12.25zm0 0"/><path d="m121.066406 408.132812 7.996094-13.855468 13.859375 8-8 13.855468zm0 0"/><path d="m153.351562 424.722656 5.476563-15.035156 15.03125 5.476562-5.476563 15.035157zm0 0"/><path d="m188.011719 435.449219 2.773437-15.757813 15.75 2.773438-2.773437 15.757812zm0 0"/><path d="m224 424h16v16h-16zm0 0"/><path d="m257.472656 422.464844 15.75-2.773438 2.773438 15.757813-15.75 2.773437zm0 0"/><path d="m290.140625 415.160156 15.03125-5.472656 5.476563 15.03125-15.03125 5.476562zm0 0"/><path d="m321.074219 402.277344 13.855469-8 8.003906 13.855468-13.859375 8.003907zm0 0"/><path d="m349.285156 384.226562 12.253906-10.289062 10.289063 12.253906-12.253906 10.289063zm0 0"/><path d="m374.003906 361.652344 10.289063-12.257813 12.257812 10.289063-10.289062 12.253906zm0 0"/><path d="m394.273438 334.9375 7.996093-13.855469 13.859375 7.996094-8 13.859375zm0 0"/><path d="m409.6875 305.1875 5.472656-15.027344 15.035156 5.472656-5.472656 15.027344zm0 0"/><path d="m419.699219 273.214844 2.777343-15.757813 15.753907 2.777344-2.777344 15.757813zm0 0"/><path d="m424 224h16v16h-16zm0 0"/><path d="m419.699219 190.777344 15.753906-2.78125 2.78125 15.757812-15.753906 2.78125zm0 0"/><path d="m409.6875 158.816406 15.035156-5.472656 5.46875 15.03125-15.039062 5.46875zm0 0"/><path d="m394.273438 129.066406 13.855468-8 8 13.859375-13.855468 7.996094zm0 0"/><path d="m373.941406 102.460938 12.257813-10.285157 10.285156 12.261719-12.261719 10.28125zm0 0"/><path d="m349.292969 79.773438 10.292969-12.25 12.25 10.289062-10.289063 12.253906zm0 0"/><path d="m321.070312 61.726562 7.996094-13.855468 13.859375 7.996094-8 13.859374zm0 0"/><path d="m290.148438 48.839844 5.476562-15.035156 15.035156 5.476562-5.476562 15.035156zm0 0"/><path d="m257.464844 41.535156 2.777344-15.757812 15.75 2.773437-2.777344 15.757813zm0 0"/></g><path d="m216 350.089844c-.378906 0-.761719-.027344-1.136719-.082032-52.523437-7.746093-93.765625-48.988281-101.511719-101.511718-.328124-2.296875.355469-4.625 1.875-6.375 1.519532-1.753906 3.726563-2.761719 6.046876-2.761719h62.726562c4.417969 0 8 3.582031 8 8v48h-16v-40h-45.070312c9.191406 38.117187 38.953124 67.878906 77.070312 77.074219v-202.136719c-38.117188 9.191406-67.875 38.949219-77.070312 77.0625h45.070312v-40h16v48c0 4.417969-3.582031 8-8 8h-62.726562c-2.320313 0-4.527344-1.007813-6.046876-2.757813-1.519531-1.753906-2.203124-4.082031-1.875-6.378906 7.75-52.519531 48.992188-93.757812 101.511719-101.503906 2.296875-.328125 4.625.355469 6.378907 1.875 1.75 1.519531 2.757812 3.726562 2.757812 6.046875v221.449219c0 4.417968-3.582031 8-8 8zm0 0" fill="#a75b25"/><path d="m248 350.089844c-4.417969 0-8-3.582032-8-8v-221.449219c0-2.320313 1.007812-4.527344 2.757812-6.046875 1.753907-1.519531 4.082032-2.203125 6.378907-1.875 52.519531 7.746094 93.761719 48.984375 101.511719 101.503906.328124 2.296875-.355469 4.625-1.875 6.378906-1.519532 1.75-3.726563 2.757813-6.046876 2.757813h-62.726562c-4.417969 0-8-3.582031-8-8v-48h16v40h45.070312c-9.195312-38.113281-38.953124-67.871094-77.070312-77.0625v202.136719c38.117188-9.195313 67.878906-38.957032 77.070312-77.074219h-45.070312v40h-16v-48c0-4.417969 3.582031-8 8-8h62.726562c2.320313 0 4.527344 1.007813 6.046876 2.761719 1.519531 1.75 2.203124 4.078125 1.875 6.375-7.746094 52.523437-48.988282 93.765625-101.511719 101.511718-.375.054688-.757813.082032-1.136719.082032zm0 0" fill="#a75b25"/></svg>